<svg xmlns="http://www.w3.org/2000/svg" viewBox="0 0 1440 320"><path fill="#0083b3" fill-opacity="0.5" d="M0,128L0,96L110.8,96L110.8,128L221.5,128L221.5,160L332.3,160L332.3,96L443.1,96L443.1,192L553.8,192L553.8,256L664.6,256L664.6,160L775.4,160L775.4,224L886.2,224L886.2,192L996.9,192L996.9,128L1107.7,128L1107.7,288L1218.5,288L1218.5,224L1329.2,224L1329.2,288L1440,288L1440,320L1329.2,320L1329.2,320L1218.5,320L1218.5,320L1107.7,320L1107.7,320L996.9,320L996.9,320L886.2,320L886.2,320L775.4,320L775.4,320L664.6,320L664.6,320L553.8,320L553.8,320L443.1,320L443.1,320L332.3,320L332.3,320L221.5,320L221.5,320L110.8,320L110.8,320L0,320L0,320Z"></path></svg>