<svg xmlns="http://www.w3.org/2000/svg" viewBox="0 0 1440 320">
    <path fill="#00cba9" fill-opacity="1" d="M0,160L11.4,176C22.9,192,46,224,69,202.7C91.4,181,114,107,137,96C160,85,183,139,206,149.3C228.6,160,251,128,274,133.3C297.1,139,320,181,343,202.7C365.7,224,389,224,411,192C434.3,160,457,96,480,80C502.9,64,526,96,549,101.3C571.4,107,594,85,617,74.7C640,64,663,64,686,106.7C708.6,149,731,235,754,272C777.1,309,800,299,823,288C845.7,277,869,267,891,240C914.3,213,937,171,960,149.3C982.9,128,1006,128,1029,144C1051.4,160,1074,192,1097,197.3C1120,203,1143,181,1166,170.7C1188.6,160,1211,160,1234,170.7C1257.1,181,1280,203,1303,192C1325.7,181,1349,139,1371,106.7C1394.3,75,1417,53,1429,42.7L1440,32L1440,320L1428.6,320C1417.1,320,1394,320,1371,320C1348.6,320,1326,320,1303,320C1280,320,1257,320,1234,320C1211.4,320,1189,320,1166,320C1142.9,320,1120,320,1097,320C1074.3,320,1051,320,1029,320C1005.7,320,983,320,960,320C937.1,320,914,320,891,320C868.6,320,846,320,823,320C800,320,777,320,754,320C731.4,320,709,320,686,320C662.9,320,640,320,617,320C594.3,320,571,320,549,320C525.7,320,503,320,480,320C457.1,320,434,320,411,320C388.6,320,366,320,343,320C320,320,297,320,274,320C251.4,320,229,320,206,320C182.9,320,160,320,137,320C114.3,320,91,320,69,320C45.7,320,23,320,11,320L0,320Z"></path>
</svg>
